<svg xmlns="http://www.w3.org/2000/svg" viewBox="0 0 24.41 25.4"><defs><style>.cls-1{fill:#fff;}</style></defs><title>Asset 6</title><g id="Layer_2" data-name="Layer 2"><g id="Layer_1-2" data-name="Layer 1"><path class="cls-1" d="M17,13.72l-.7,1.57,7.85,3.48-.84,1.9L15.5,17.18l-.69,1.57a1.42,1.42,0,0,1-1.88.72l-2.74-1.21a1.43,1.43,0,0,1-.72-1.88l2.23-5a1.43,1.43,0,0,1,1.88-.72l2.73,1.21A1.43,1.43,0,0,1,17,13.72m-.93,2.1-.37.84,7.31,3.24.37-.84Zm0-3.45-2.74-1.21a.84.84,0,0,0-1.11.43l-2.23,5a.84.84,0,0,0,.43,1.11l2.73,1.21a.85.85,0,0,0,1.12-.43L15,17l.84-1.9.7-1.56a.85.85,0,0,0-.43-1.12M13.89,5.43a.48.48,0,0,0-.34.11.69.69,0,0,0-.22.3V7.49a.55.55,0,0,0,.56.38.5.5,0,0,0,.47-.26,1.41,1.41,0,0,0,.16-.69V6.51a1.74,1.74,0,0,0-.16-.78.52.52,0,0,0-.47-.3m-2.72-.87a.63.63,0,0,0-.52-.21H9.9V5.92h.72a.71.71,0,0,0,.55-.2.91.91,0,0,0,.17-.58.85.85,0,0,0-.17-.58m13.24,8.83H23.14V18l-.57-.25V13.43h-.83v3.94l-.57-.25V13.39H17.42a1.56,1.56,0,0,0,0-.57h6.43v-1H22.11l-5.17.11a1.82,1.82,0,0,0-.51-.36L13.7,10.37a1.72,1.72,0,0,0-2.26.87L11.1,12l-8.81-.18H.57v1H10.74l-.25.57H3.23V22H21.17V20l.57.25V22h.83V20.63l.57.25v2.38h1.27V25.4H0V23.26H1.27V13.39H0V11.26H.8L12,.08a.3.3,0,0,1,.41,0l11.2,11.18h.8ZM.57,24.83H23.84v-1H.57ZM1.84,22h.83V13.43H1.84ZM12.14,8.21A.67.67,0,0,1,12,7.93a2.1,2.1,0,0,1,0-.37V7.17a1.46,1.46,0,0,0-.14-.66.83.83,0,0,0-.48-.37,1.15,1.15,0,0,0,.46-.41,1.17,1.17,0,0,0,.16-.6,1.19,1.19,0,0,0-.35-.92,1.3,1.3,0,0,0-1-.33H9.28v4.4H9.9V6.38h.82a.56.56,0,0,1,.47.22.91.91,0,0,1,.16.58v.37a3,3,0,0,0,0,.43.52.52,0,0,0,.13.3h.63Zm3-1.7a2,2,0,0,0-.29-1.13A.89.89,0,0,0,14.05,5a.86.86,0,0,0-.43.11,1.08,1.08,0,0,0-.32.32l0-.37h-.55V9.53h.62V8a.94.94,0,0,0,1.51,0,1.7,1.7,0,0,0,.29-1Z"/></g></g></svg>