<svg xmlns="http://www.w3.org/2000/svg" viewBox="0 0 19.45 21.53"><defs><style>.cls-1{fill:#fff;}</style></defs><title>Asset 5</title><g id="Layer_2" data-name="Layer 2"><g id="Layer_1-2" data-name="Layer 1"><path class="cls-1" d="M7.9,10.08c0-2.85,0-5.51,0-8.16A1.82,1.82,0,0,1,10.4.13a1.91,1.91,0,0,1,1.16,1.94c0,2.36,0,4.72,0,7.08V10c.2-.15.34-.24.45-.34l2.79-2.8a1.85,1.85,0,0,1,2.77-.15,1.83,1.83,0,0,1-.16,2.71q-3.13,3.15-6.27,6.27a1.81,1.81,0,0,1-2.81,0Q5.16,12.5,2,9.34a1.83,1.83,0,0,1-.14-2.67,1.8,1.8,0,0,1,2.71.09C5.66,7.82,6.72,8.89,7.9,10.08m9.55,11.45a1.82,1.82,0,1,0,0-3.63H2a2.55,2.55,0,0,0-1.09.28,1.74,1.74,0,0,0-.82,2,1.77,1.77,0,0,0,1.76,1.38H17.45"/></g></g></svg>