<svg xmlns="http://www.w3.org/2000/svg" viewBox="0 0 26.95 26.75"><defs><style>.cls-1{fill:#fff;}</style></defs><title>Asset 2</title><g id="Layer_2" data-name="Layer 2"><g id="Layer_1-2" data-name="Layer 1"><path class="cls-1" d="M20,0,27,6H23.82c-.21.81-.35,1.59-.61,2.32-2.1,6.12-6.46,9.76-12.65,11.28a18.41,18.41,0,0,1-9.63-.28,1.36,1.36,0,0,1-.4-.14A4.69,4.69,0,0,1,0,18.75a4.68,4.68,0,0,1,.73-.21,4.64,4.64,0,0,1,.64.07,14.61,14.61,0,0,0,14.88-10c.27-.78.45-1.59.71-2.51H13.37l-.06-.16L20,0m4.42,7.05a1.27,1.27,0,0,0-.12.23,17.4,17.4,0,0,1-3.1,6.63,1.14,1.14,0,0,0-.21.65c0,4.38,0,7.23,0,11.6,0,.46.17.58.59.57.67,0,1.34,0,2,0,1,0,1,0,1-.95V7.09l-.13,0M16.34,18.2a1,1,0,0,0-.57,1c0,2.75,0,4,0,6.72,0,.24,0,.47,0,.79,1,0,1.95,0,2.9,0,.5,0,.61-.19.6-.64,0-1.33,0-1.15,0-2.49V16.12c-1.06.75-2,1.45-3,2.08m-5.42,2.24a.85.85,0,0,0-.4.66c0,1.7,0,1.87,0,3.56v2.07c1,0,1.94,0,2.86,0,.59,0,.73-.19.72-.74,0-2.48,0-3.44,0-5.92,0-.18,0-.36-.05-.59-1.09.33-2.1.6-3.09,1M0,26.67h3.5c0-2.41,0-3.24,0-5.6a.53.53,0,0,0-.33-.36c-1-.26-2.07-.49-3.16-.73Zm5.26.06c1,0,2,0,2.9,0,.51,0,.65-.16.65-.66,0-2,0-2.39,0-4.35v-.81H5.27Z"/></g></g></svg>