<svg xmlns="http://www.w3.org/2000/svg" viewBox="0 0 24.71 22.95"><defs><style>.cls-1{fill:#fff;}</style></defs><title>Asset 4</title><g id="Layer_2" data-name="Layer 2"><g id="Layer_1-2" data-name="Layer 1"><path class="cls-1" d="M24.71,11.84V4.06A4.08,4.08,0,0,0,20.65,0H7.9A4.08,4.08,0,0,0,3.84,4.06v7.78A4.08,4.08,0,0,0,7.9,15.9H19l5.69,4L23,15.14a4,4,0,0,0,1.72-3.3M15.2,14H12.8v-2h2.4Zm2.32-6.69A5.36,5.36,0,0,1,16,8.76a2,2,0,0,0-.65.78,3,3,0,0,0-.15,1.06H12.81a3.23,3.23,0,0,1,.34-1.67,5.36,5.36,0,0,1,1.32-1.29,4.69,4.69,0,0,0,.93-1,2.22,2.22,0,0,0,.34-1.22,1.7,1.7,0,0,0-.39-1.18,1.69,1.69,0,0,0-2.16-.06,1.35,1.35,0,0,0-.43,1H10.44l0,0a2.83,2.83,0,0,1,1-2.4,4.33,4.33,0,0,1,2.75-.83,4.24,4.24,0,0,1,2.88.92,3.22,3.22,0,0,1,1,2.52,3.37,3.37,0,0,1-.61,1.93M14.84,17.44A2.9,2.9,0,0,1,12,20.14H4.05L0,23,1.22,19.6A2.89,2.89,0,0,1,0,17.25V11.71A2.91,2.91,0,0,1,2.31,8.87v3a5.6,5.6,0,0,0,5.59,5.6Z"/></g></g></svg>