<svg xmlns="http://www.w3.org/2000/svg" viewBox="0 0 19.1 24.51"><defs><style>.cls-1{fill:#fff;}</style></defs><title>Asset 3</title><g id="Layer_2" data-name="Layer 2"><g id="Layer_1-2" data-name="Layer 1"><path class="cls-1" d="M.92,24.51H18.19a.92.92,0,0,0,.91-.92V.92A.92.92,0,0,0,18.19,0H6.32a.91.91,0,0,0-.65.27L.27,5.67A.91.91,0,0,0,0,6.31V23.59a.92.92,0,0,0,.92.92m16.35-1.83H1.83V6.92H6.92V1.83H17.27ZM8.73,18.17v2H7.54V15h2a2.25,2.25,0,0,1,1.41.41,1.37,1.37,0,0,1,.52,1.12,1.15,1.15,0,0,1-.21.69,1.6,1.6,0,0,1-.62.46,1.18,1.18,0,0,1,.68.44,1.46,1.46,0,0,1,.2.78v.32a2,2,0,0,0,.06.46.58.58,0,0,0,.21.36v.07H10.54a.55.55,0,0,1-.19-.38,3.28,3.28,0,0,1,0-.52v-.3a.73.73,0,0,0-.19-.56.77.77,0,0,0-.57-.2Zm0-.91h.79a.77.77,0,0,0,.54-.16.58.58,0,0,0,.19-.47.69.69,0,0,0-.19-.51.74.74,0,0,0-.55-.19H8.73Zm7,1a2.24,2.24,0,0,1-.39,1.38,1.3,1.3,0,0,1-1.09.52,1.06,1.06,0,0,1-.48-.11,1,1,0,0,1-.37-.3v1.79H12.23V16.33h1.11l0,.42a1.08,1.08,0,0,1,.38-.36.94.94,0,0,1,.51-.13,1.25,1.25,0,0,1,1.09.55,2.4,2.4,0,0,1,.39,1.43Zm-1.18-.07a1.67,1.67,0,0,0-.15-.77.45.45,0,0,0-.44-.29.75.75,0,0,0-.35.07.53.53,0,0,0-.21.21v1.59a.49.49,0,0,0,.22.18.86.86,0,0,0,.34.06.47.47,0,0,0,.45-.25,1.63,1.63,0,0,0,.14-.73Zm1.28-6.6H3V10.42H15.85Zm0,2.27H3V12.69H15.85Zm0-4.63H3V8.06H15.85Zm0-2.36H8.25V5.7h7.6Zm0-2.38H8.25V3.32h7.6Z"/></g></g></svg>