<svg xmlns="http://www.w3.org/2000/svg" xmlns:xlink="http://www.w3.org/1999/xlink" viewBox="0 0 56.85 56.85"><defs><style>.cls-1,.cls-2{fill:none;}.cls-2{clip-rule:evenodd;}.cls-3{fill:#0066a0;}.cls-3,.cls-4{fill-rule:evenodd;}.cls-4{fill:#fff;}.cls-5{opacity:0.45;}.cls-6{clip-path:url(#clip-path);}.cls-7{clip-path:url(#clip-path-2);}.cls-8{fill:url(#linear-gradient);}</style><clipPath id="clip-path"><rect class="cls-1" x="14.21" y="14.21" width="28.43" height="28.43"/></clipPath><clipPath id="clip-path-2"><path class="cls-2" d="M42.64,28.43A14.22,14.22,0,1,1,28.43,14.21,14.21,14.21,0,0,1,42.64,28.43"/></clipPath><linearGradient id="linear-gradient" x1="136.33" y1="1707.98" x2="137.33" y2="1707.98" gradientTransform="matrix(28.43, 0, 0, -28.43, -3861.2, 48580.47)" gradientUnits="userSpaceOnUse"><stop offset="0" stop-color="#fff"/><stop offset="0.1" stop-color="#f3f3f3"/><stop offset="0.27" stop-color="#d3d3d3"/><stop offset="0.5" stop-color="#9f9f9e"/><stop offset="0.78" stop-color="#585857"/><stop offset="1" stop-color="#1d1d1b"/></linearGradient></defs><title>Asset 3</title><g id="Layer_2" data-name="Layer 2"><g id="Layer_1-2" data-name="Layer 1"><path class="cls-3" d="M51.81,28.43A23.39,23.39,0,1,1,28.43,5,23.38,23.38,0,0,1,51.81,28.43"/><path class="cls-4" d="M44.49,28.43A16.07,16.07,0,1,1,28.43,12.36,16.06,16.06,0,0,1,44.49,28.43"/><g class="cls-5"><g class="cls-6"><g class="cls-7"><rect class="cls-8" x="8.33" y="8.33" width="40.2" height="40.2" transform="translate(-11.77 28.43) rotate(-45)"/></g></g></g></g></g></svg>